<?xml version="1.0" encoding="UTF-8" standalone="no"?>
<!DOCTYPE svg PUBLIC "-//W3C//DTD SVG 1.1//EN" "http://www.w3.org/Graphics/SVG/1.1/DTD/svg11.dtd">
<svg width="100%" height="100%" viewBox="0 0 565 747" version="1.1" xmlns="http://www.w3.org/2000/svg" xmlns:xlink="http://www.w3.org/1999/xlink" xml:space="preserve" xmlns:serif="http://www.serif.com/" style="fill-rule:evenodd;clip-rule:evenodd;stroke-linejoin:round;stroke-miterlimit:2;">
    <g transform="matrix(1,0,0,1,-364.976,-566.164)">
        <g>
            <path d="M787.705,879.84C786.949,880.161 784.113,874.683 784.113,874.683C779.348,868.499 775.144,862.37 770.271,856.829C738.082,820.235 698.679,795.115 650.85,784.796C587.982,771.233 529.401,782.264 475.949,818.416C467.975,823.809 460.867,830.469 453.216,836.359C450.122,838.741 449.166,839.575 444.566,844.408C398.058,893.269 375.446,950.225 380.591,1016.57C387.121,1100.77 431.037,1160.77 505.209,1201.45C505.242,1201.47 511.68,1203.93 514.689,1205.19C541.583,1216.49 569.6,1222.31 598.743,1222.82C600.909,1222.86 603.082,1222.74 605.241,1222.87C609.8,1223.15 612.724,1225.95 612.784,1229.92C612.848,1234.16 609.868,1237.44 605.068,1237.19C591.118,1236.44 577.103,1235.96 563.276,1234.14C544.724,1231.7 526.875,1226.21 509.661,1218.78C509.081,1218.53 493.316,1211.3 489.284,1209C422.951,1171.2 381.299,1115.27 368.539,1039.75C357.79,976.133 371.369,917.137 409.162,864.449C417.752,852.474 428.408,841.989 437.906,830.645C439.155,829.153 438.316,829.305 445.421,823.328C499.507,777.836 561.276,758.158 630.993,766.666C701.064,775.217 755.542,810.475 797.277,867.602C797.393,867.762 796.479,866.299 800.501,872.664C825.631,912.44 838.28,955.719 838.23,1003.81C841.925,999.767 844.796,996.644 847.646,993.501C854.026,986.466 860.342,979.369 866.793,972.399C870.438,968.462 874.667,968.017 877.746,970.956C880.762,973.836 880.74,977.738 877.257,981.618C862.673,997.86 848.037,1014.06 833.326,1030.18C829.363,1034.53 825.428,1034.66 821.117,1030.79C805.008,1016.3 788.938,1001.77 772.903,987.21C768.602,983.303 768.007,979.184 770.995,975.93C773.919,972.745 778.114,973.054 782.42,976.932C795.656,988.85 808.853,1000.81 823.002,1013.6C825.693,964.556 813.464,920.635 787.705,879.84ZM718.846,909.412C718.846,909.412 716.884,918.672 715.873,922.294C703.826,965.435 688.395,1007.23 663.849,1045.02C642.525,1077.84 610.659,1089.34 573.007,1087.24C556.339,1086.3 539.915,1083.14 524.454,1076.52C518.097,1073.8 512.214,1069.97 505.748,1066.44C500.106,1076.53 496.676,1087.94 493.733,1099.53C492.708,1103.56 491.899,1107.65 490.767,1111.66C489.469,1116.24 486.239,1118.44 482.379,1117.67C478.34,1116.86 476.083,1113.28 477.21,1108.38C481.202,1091 485.35,1073.63 494.369,1057.99C496.337,1054.57 496.506,1051.78 495.454,1047.84C487.018,1016.3 489.633,985.918 505.735,957.017C524.78,922.836 554.621,907.643 592.808,906.429C617.02,905.659 640.991,902.582 664.289,895.876C672.84,893.415 680.787,888.866 689.032,885.321C693.154,883.548 697.206,881.458 701.5,880.264C712.947,877.081 720.693,883.408 720.131,895.257C719.922,899.676 719.343,904.077 718.846,909.412ZM573.626,1073.33C594.993,1074.55 615.165,1070.86 632.878,1058.12C645.914,1048.74 655.227,1035.83 661.852,1021.68C673.693,996.381 684.111,970.415 694.881,944.628C697.219,939.031 698.533,933.006 700.752,925.762C703.334,917.337 702.498,917.928 702.747,916.682C704.231,909.248 705.297,901.73 706.742,892.759C701.246,895.221 697.256,897.164 693.149,898.817C682.686,903.029 672.45,908.168 661.619,911.031C637.234,917.478 612.176,919.614 586.995,920.893C564.951,922.013 545.285,929.568 530.288,946.546C509.774,969.77 502.491,997.194 505.441,1027.66C505.777,1031.12 506.616,1034.54 507.396,1038.97C521.418,1023.68 537.268,1013.06 554.842,1005.07C564.673,1000.6 574.837,996.838 584.962,993.055C589.781,991.254 593.58,992.989 594.936,996.845C596.399,1001.01 594.392,1004.42 589.293,1006.33C587.735,1006.92 586.12,1007.35 584.555,1007.91C566.796,1014.32 549.612,1021.89 534.389,1033.3C526.697,1039.06 519.59,1045.43 513.789,1053.89C517.09,1056.23 519.749,1058.53 522.764,1060.18C538.292,1068.69 555.413,1071.25 573.626,1073.33Z" style="fill:rgb(0,250,250);fill-rule:nonzero;"/>
            <path d="M901.258,1311.98C900.502,1312.24 899.746,1312.71 898.99,1312.71C873.463,1312.68 847.936,1312.61 822.126,1311.8C821.855,1262.98 821.882,1214.9 821.872,1166.83C821.865,1134.56 821.806,1102.29 821.77,1070.02C822.556,1069.82 823.343,1069.45 824.129,1069.45C849.585,1069.46 875.04,1069.52 900.821,1070.26C901.136,1147.64 901.124,1224.32 901.122,1301.01C901.122,1304.67 901.211,1308.32 901.258,1311.98Z" style="fill:rgb(0,250,250);fill-rule:nonzero;"/>
            <path d="M808.741,1312.75L730.265,1312.75L730.265,1110.47L808.741,1110.47L808.741,1312.75Z" style="fill:rgb(0,250,250);fill-rule:nonzero;"/>
            <path d="M717.084,1152.44L717.084,1312.35L638.326,1312.35L638.326,1152.44L717.084,1152.44Z" style="fill:rgb(0,250,250);fill-rule:nonzero;"/>
            <path d="M922.371,598.604C933.674,622.018 931.745,644.069 917.127,665.024C891.869,701.23 866.421,737.304 841.327,773.623C829.947,790.094 814.889,799.961 794.933,802.41C793.145,802.629 791.127,804.228 789.97,805.757C785.772,811.304 781.896,817.095 777.587,823.237C759.207,805.032 737.945,791.696 715.421,778.906C719.527,773.028 723.551,767.604 727.15,761.912C728.242,760.185 728.942,757.535 728.495,755.617C724.048,736.548 728.044,719.388 739.204,703.509C761.809,671.343 784.217,639.038 806.797,606.854C811.956,599.501 816.723,591.659 822.964,585.315C852.737,555.046 900.878,561.529 922.371,598.604M755.322,786.206C761.836,791.041 768.35,795.876 775.26,801.005C777.113,798.37 779.033,796.074 780.464,793.506C782.714,789.471 785.714,787.976 790.507,787.826C806.139,787.337 818.588,780.425 827.602,767.552C838.78,751.59 849.938,735.613 861.087,719.631C876.62,697.365 892.655,675.429 907.522,652.727C924.171,627.306 912.415,593.905 884.085,583.719C863.007,576.14 840.934,583.532 827.161,603.136C802.266,638.57 777.74,674.264 752.633,709.546C741.886,724.648 738.36,740.348 744.394,758.089C745,759.873 744.188,762.563 743.196,764.375C741.323,767.8 738.84,770.891 736.56,774.194C742.969,778.281 748.854,782.034 755.322,786.206Z" style="fill:rgb(0,250,250);fill-rule:nonzero;"/>
        </g>
    </g>
</svg>
