<svg version="1.1" id="Layer_1" xmlns="http://www.w3.org/2000/svg" xmlns:xlink="http://www.w3.org/1999/xlink" x="0px" y="0px"
	 width="100%" viewBox="0 0 1024 784" enable-background="new 0 0 1024 784" xml:space="preserve">
<path fill="#000000" opacity="1.000000" stroke="none" 
	d="
M659.255127,102.304108 
	C703.036804,91.110321 744.047485,74.023537 783.577209,53.204163 
	C786.950317,51.427631 789.802856,50.894695 793.829346,52.271500 
	C825.220520,63.005325 856.786438,73.226730 888.238220,83.785645 
	C901.095886,88.102196 913.804932,92.861542 927.696655,97.817223 
	C927.696655,93.158615 927.695251,89.395515 927.697144,85.632416 
	C927.698914,82.189545 929.159912,81.009514 932.415527,82.579315 
	C942.604614,87.492424 952.750427,92.499290 963.010437,97.259666 
	C967.052185,99.134895 967.109680,102.376869 967.106445,106.006714 
	C967.068054,148.837769 967.078369,191.668884 967.081116,234.499969 
	C967.084290,283.664154 967.093018,332.828308 967.097839,381.992493 
	C967.097961,383.325623 967.096069,384.659119 967.067810,385.991852 
	C966.991455,389.589783 965.564270,391.124725 962.095398,389.016510 
	C952.269531,383.044739 941.994934,377.908508 931.779846,372.663330 
	C928.540894,371.000214 927.538330,368.443726 927.566162,364.906921 
	C927.678894,350.580933 927.629211,336.253143 927.560730,321.926392 
	C927.523865,314.198029 926.559937,313.309845 919.153442,314.439148 
	C914.375122,315.167694 909.612427,315.920929 904.773010,316.017151 
	C902.111328,316.070068 900.784546,317.084625 900.031677,319.959747 
	C895.250305,338.219940 888.829224,356.158508 878.683411,371.892273 
	C865.396606,392.497009 852.666626,413.535767 836.840515,432.553619 
	C827.073730,444.290070 815.350342,453.266846 803.439087,462.116089 
	C776.120239,482.412079 750.355713,504.386047 725.866455,528.046082 
	C707.016785,546.257446 688.508728,564.637207 672.925110,585.764526 
	C661.056641,601.855042 648.042542,616.991638 634.996460,632.117004 
	C626.538757,641.922607 616.474182,647.612366 603.136292,646.309265 
	C598.196289,645.826599 593.235535,646.620422 588.260559,645.242981 
	C579.204041,642.735657 573.480042,635.766357 567.267517,629.749451 
	C555.267761,618.127380 545.468628,604.542236 541.814758,588.075500 
	C539.355896,576.994202 538.299988,565.370239 539.144714,553.845703 
	C541.088135,527.334900 550.265137,503.394989 565.495850,481.754608 
	C575.894958,466.979279 588.165405,453.840668 601.720398,441.912231 
	C610.350098,434.317963 619.101196,426.861725 627.748047,419.286865 
	C634.537109,413.339539 640.740906,407.067566 644.152588,398.291504 
	C647.223450,390.392303 645.329041,383.490540 641.222839,377.016998 
	C632.736694,363.638336 619.680969,356.220947 605.476013,350.233185 
	C594.695557,345.688965 583.341919,343.678406 571.954529,343.564270 
	C560.188965,343.446350 548.553650,346.163574 537.670654,351.074921 
	C517.902344,359.996063 499.523315,371.410797 480.873260,382.386688 
	C474.676300,386.033783 467.989319,388.599030 462.862183,394.001923 
	C447.584869,410.100708 439.007080,429.265503 437.373413,451.233490 
	C435.093445,481.893188 428.088226,511.224487 414.020020,538.609314 
	C405.220551,555.738159 394.688965,571.677551 378.526978,583.067749 
	C370.088226,589.014954 360.791809,594.067444 350.818756,595.028259 
	C335.258698,596.527344 319.526123,595.312012 305.110291,587.891724 
	C300.463776,585.500000 296.407318,582.239746 293.897156,577.508362 
	C292.352051,574.596069 289.221954,573.419189 287.341949,570.783691 
	C279.686096,560.051453 279.325470,548.167969 281.434784,535.896484 
	C283.401794,524.452881 285.426910,513.009583 287.862335,501.659729 
	C289.527924,493.897308 290.994781,486.110352 292.425262,478.307281 
	C292.874573,475.856293 293.085297,473.491547 292.830078,470.143005 
	C286.562744,478.067352 280.947662,485.402130 275.084747,492.533142 
	C260.952362,509.722168 244.541168,524.455627 224.172424,533.586182 
	C206.537949,541.491089 187.613800,543.143250 168.431351,539.840027 
	C161.033508,538.566101 153.772842,536.749756 146.823090,533.858093 
	C131.627518,527.535461 123.944435,515.471863 121.938866,499.746887 
	C120.967918,492.134033 124.021088,485.014526 127.901436,478.468567 
	C136.897400,463.292847 145.517166,447.906525 154.160278,432.528625 
	C158.784927,424.300415 159.996399,415.343323 161.612274,406.393036 
	C163.579605,395.496155 164.696762,384.470978 166.375320,373.527069 
	C167.956238,363.219940 168.826233,352.778870 170.454346,342.451843 
	C172.907349,326.892609 174.694366,311.239990 177.397476,295.708801 
	C179.298843,284.784241 180.123779,273.676239 181.611404,262.674744 
	C183.298279,250.199600 185.131393,237.743195 187.034119,225.298996 
	C187.453735,222.554626 189.212708,220.495544 191.656601,219.075775 
	C228.818954,197.486526 260.041077,168.338745 292.096924,140.238449 
	C299.227539,133.987732 305.914673,127.196548 313.816650,121.848061 
	C318.304535,118.810432 322.993073,116.718117 328.643066,116.734581 
	C366.458069,116.844765 404.277954,117.413277 442.072906,118.161194 
	C467.672272,118.667770 493.284973,119.918594 518.891052,119.564949 
	C537.491699,119.308060 556.071899,118.021515 574.647217,116.322281 
	C590.367615,114.884201 605.916748,112.430397 621.533264,110.442497 
	C631.664124,109.152885 641.629639,106.414551 651.579773,103.962433 
	C654.005554,103.364616 656.498047,103.220459 659.255127,102.304108 
M609.721924,286.800354 
	C611.381958,286.936707 613.090576,286.865356 614.694580,287.241089 
	C633.925354,291.745575 651.525879,299.465668 665.998718,313.352783 
	C675.983032,322.932983 684.132690,333.722992 688.339111,347.096252 
	C689.484863,350.738708 689.216858,355.347351 691.411011,358.028748 
	C695.828491,363.427216 693.481262,368.194122 691.955139,373.336884 
	C691.435303,375.088837 690.848877,376.864319 690.667847,378.666687 
	C689.286621,392.412537 683.765259,404.666412 676.688171,416.214203 
	C667.150635,431.776703 654.395264,444.809235 642.183411,458.200043 
	C627.725464,474.053894 612.542053,489.225220 600.601196,507.246124 
	C590.375000,522.679321 584.321472,539.539856 582.323730,557.799255 
	C580.832336,571.430298 585.188538,584.064636 590.584900,596.325562 
	C593.160278,602.176941 595.798950,608.063599 601.322083,612.792969 
	C603.108582,609.445068 604.664917,606.723633 606.043396,603.914978 
	C622.051575,571.298035 641.856506,541.149658 665.949524,513.985840 
	C689.209595,487.761169 715.058472,464.250122 743.049438,443.087646 
	C760.039856,430.242065 777.758972,418.409546 793.924683,404.404144 
	C823.870972,378.459869 842.661865,345.388519 856.883362,309.182465 
	C864.723145,289.223572 870.212891,268.560455 875.000305,247.705521 
	C876.286133,242.103806 879.401855,239.486435 885.074097,238.560928 
	C897.129578,236.593918 908.992310,233.429871 921.216797,232.501022 
	C926.134033,232.127411 927.836182,230.073257 927.747375,224.935532 
	C927.313171,199.807175 927.244690,174.671707 927.197144,149.538483 
	C927.191345,146.488556 926.117859,145.201630 923.296021,144.203217 
	C907.330688,138.554321 891.506714,132.502899 875.515442,126.930595 
	C851.538635,118.575699 827.873779,109.294655 803.511353,102.094048 
	C798.356689,100.570534 793.343079,97.931412 787.192871,100.741875 
	C751.318909,117.135231 716.133911,134.921555 680.994568,152.792923 
	C649.275696,168.924728 617.900940,185.733505 586.166870,201.834717 
	C557.976257,216.138046 530.310120,231.399292 502.558533,246.509445 
	C475.102417,261.458710 447.687164,276.483765 420.309601,291.576416 
	C402.536743,301.374146 384.853699,311.335052 367.158722,321.273254 
	C365.049347,322.457977 362.701080,323.355164 362.131653,326.348602 
	C359.161530,341.962067 357.220856,357.748535 354.756989,373.432983 
	C352.340149,388.817902 349.397003,404.103638 346.678741,419.417084 
	C342.770325,441.435303 339.271240,463.531372 334.597534,485.424377 
	C329.890350,507.474091 326.483093,529.815735 319.002106,551.196411 
	C317.926422,554.270813 318.921600,555.783447 321.939026,555.898438 
	C326.244720,556.062561 330.546112,556.358032 334.811127,555.016602 
	C349.428253,550.419067 359.185303,540.412720 365.831360,527.094360 
	C372.891602,512.945923 377.783478,498.001892 382.054932,482.780731 
	C385.774841,469.524811 388.684937,456.125305 391.201080,442.622131 
	C392.749481,434.312439 394.196259,425.974945 395.355865,417.603821 
	C396.993713,405.780426 398.900513,393.946838 399.568787,382.054443 
	C399.968079,374.948547 403.541107,368.681366 403.508911,361.615143 
	C403.504761,360.707336 404.237396,359.330139 406.101715,359.574921 
	C407.718597,365.051910 411.240906,365.146271 415.610779,362.562866 
	C416.611481,361.971222 417.718933,361.560303 418.720673,360.970093 
	C443.526428,346.353943 468.340454,331.752991 493.591583,317.910706 
	C518.361511,304.332153 542.942383,290.311646 571.587463,286.269958 
	C584.035095,284.513672 596.447693,284.383636 609.721924,286.800354 
M539.484436,166.195679 
	C535.153076,166.190292 530.821411,166.217255 526.490601,166.165359 
	C524.438110,166.140762 522.586426,166.541046 520.812134,167.671265 
	C511.117340,173.847031 500.742371,178.747116 490.462585,183.838745 
	C457.249634,200.289246 424.033722,216.735153 390.912079,233.368164 
	C362.970703,247.399734 335.170044,261.711273 307.271057,275.827606 
	C304.796814,277.079529 302.793365,278.649933 301.388855,281.010498 
	C296.708069,288.877380 291.945618,296.696960 287.360352,304.619110 
	C270.012390,334.591553 251.683929,363.972443 233.245422,393.270966 
	C212.664062,425.974487 190.335373,457.510376 167.265900,488.513245 
	C166.202377,489.942505 164.786591,491.248108 164.760818,493.485901 
	C174.135925,498.943176 183.808365,496.373871 193.068329,493.694794 
	C209.430557,488.960876 221.873550,478.008606 233.292038,465.954681 
	C257.824646,440.056976 277.794312,410.816437 295.417694,379.917938 
	C309.835114,354.640350 317.285400,327.030823 321.883606,298.567200 
	C322.619202,294.013519 324.081604,290.951263 328.224915,288.746613 
	C344.379181,280.150970 360.419403,271.340729 376.485962,262.580750 
	C435.663971,230.315140 495.256531,198.830200 555.046936,167.717377 
	C556.009460,167.216507 557.316711,166.960419 557.308105,164.801498 
	C551.664978,165.582016 546.101196,166.582626 539.484436,166.195679 
M412.113159,164.541016 
	C406.585236,163.376526 402.101868,166.190140 397.519073,168.465363 
	C363.414520,185.397171 329.300812,202.310959 295.248444,219.347305 
	C274.574005,229.690720 253.986038,240.207703 233.403992,250.734253 
	C229.938950,252.506454 227.204437,255.046036 222.551849,252.726715 
	C217.056763,249.987411 215.931168,251.250946 215.267334,257.532379 
	C214.658569,263.293060 213.783737,269.033997 212.802689,274.745239 
	C210.699234,286.990784 208.421616,299.206268 206.273254,311.444275 
	C204.752243,320.108734 203.283737,328.782990 201.868301,337.465332 
	C199.965088,349.139709 198.135544,360.826080 196.274368,372.507324 
	C200.102158,368.194916 202.794846,363.485565 205.587891,358.836517 
	C228.568146,320.585663 253.162323,283.355164 277.117126,245.720337 
	C278.496857,243.552719 280.231567,241.831940 282.534698,240.694702 
	C290.586243,236.719025 298.661926,232.791656 306.687927,228.765106 
	C340.445251,211.829468 374.189301,194.867325 407.934845,177.908188 
	C415.577667,174.067230 423.206970,170.199402 432.183929,165.666611 
	C424.753021,164.006973 418.738586,165.549057 412.113159,164.541016 
z"/>
</svg>