<?xml version="1.0" encoding="UTF-8" standalone="no"?>
<!DOCTYPE svg PUBLIC "-//W3C//DTD SVG 1.1//EN" "http://www.w3.org/Graphics/SVG/1.1/DTD/svg11.dtd">
<svg width="100%" height="100%" viewBox="0 0 1024 784" version="1.1" xmlns="http://www.w3.org/2000/svg" xmlns:xlink="http://www.w3.org/1999/xlink" xml:space="preserve" xmlns:serif="http://www.serif.com/" style="fill-rule:evenodd;clip-rule:evenodd;stroke-linejoin:round;stroke-miterlimit:2;">
    <path d="M783.577,53.204C786.95,51.428 789.803,50.895 793.829,52.272C825.221,63.005 856.786,73.227 888.238,83.786C901.096,88.102 913.805,92.862 927.697,97.817C927.697,93.159 927.695,89.396 927.697,85.632C927.699,82.19 929.16,81.01 932.416,82.579C942.605,87.492 952.75,92.499 963.01,97.26C967.052,99.135 967.11,102.377 967.106,106.007C967.068,148.838 967.078,191.669 967.081,234.5C967.084,283.664 967.093,332.828 967.098,381.992C967.098,383.326 967.096,384.659 967.068,385.992C966.991,389.59 965.564,391.125 962.095,389.017C952.27,383.045 941.995,377.909 931.78,372.663C928.541,371 927.538,368.444 927.566,364.907C927.679,350.581 927.629,336.253 927.561,321.926C927.524,314.198 926.56,313.31 919.153,314.439C914.375,315.168 909.612,315.921 904.773,316.017C902.111,316.07 900.785,317.085 900.032,319.96C895.25,338.22 888.829,356.159 878.683,371.892C865.397,392.497 852.667,413.536 836.841,432.554C827.074,444.29 815.35,453.267 803.439,462.116C776.12,482.412 750.356,504.386 725.866,528.046C707.017,546.257 688.509,564.637 672.925,585.765C661.057,601.855 648.043,616.992 634.996,632.117C626.539,641.923 616.339,644.01 603.136,646.309C596.843,647.405 593.236,646.62 588.261,645.243C579.204,642.736 573.48,635.766 567.268,629.749C555.268,618.127 545.469,604.542 541.815,588.076C539.356,576.994 538.3,565.37 539.145,553.846C541.088,527.335 550.265,503.395 565.496,481.755C575.895,466.979 588.165,453.841 601.72,441.912C610.35,434.318 619.101,426.862 627.748,419.287C634.537,413.34 640.741,407.068 644.153,398.292C647.223,390.392 645.329,383.491 641.223,377.017C632.737,363.638 619.681,356.221 605.476,350.233C594.696,345.689 583.342,343.678 571.955,343.564C560.189,343.446 548.554,346.164 537.671,351.075C517.902,359.996 499.523,371.411 480.873,382.387C474.676,386.034 467.989,388.599 462.862,394.002C447.585,410.101 439.007,429.266 437.373,451.233C435.093,481.893 428.088,511.224 414.02,538.609C405.221,555.738 394.689,571.678 378.527,583.068C370.088,589.015 360.792,594.067 350.819,595.028C335.259,596.527 319.526,595.312 305.11,587.892C300.464,585.5 289.222,573.419 287.342,570.784C279.686,560.051 279.325,548.168 281.435,535.896C283.402,524.453 285.427,513.01 287.862,501.66C289.528,493.897 290.995,486.11 292.425,478.307C292.875,475.856 293.085,473.492 292.83,470.143C286.563,478.067 280.948,485.402 275.085,492.533C260.952,509.722 244.541,524.456 224.172,533.586C206.538,541.491 187.614,543.143 168.431,539.84C161.034,538.566 153.773,536.75 146.823,533.858C131.628,527.535 123.944,515.472 121.939,499.747C120.968,492.134 124.021,485.015 127.901,478.469C136.897,463.293 145.517,447.907 154.16,432.529C158.785,424.3 159.996,415.343 161.612,406.393C163.58,395.496 164.697,384.471 166.375,373.527C167.956,363.22 168.826,352.779 170.454,342.452C172.907,326.893 174.694,311.24 177.397,295.709C179.299,284.784 180.124,273.676 181.611,262.675C183.298,250.2 185.131,237.743 187.034,225.299C187.454,222.555 189.213,220.496 191.657,219.076C228.819,197.487 260.041,168.339 292.097,140.238C299.228,133.988 305.915,127.197 313.817,121.848C318.305,118.81 322.993,116.718 328.643,116.735C366.458,116.845 404.278,117.413 442.073,118.161C467.672,118.668 493.285,119.919 518.891,119.565C537.492,119.308 556.072,118.022 574.647,116.322C590.368,114.884 605.917,112.43 621.533,110.442C631.664,109.153 641.63,106.415 651.58,103.962M609.722,286.8C611.382,286.937 613.091,286.865 614.695,287.241C633.925,291.746 651.526,299.466 665.999,313.353C675.983,322.933 683.594,333.905 688.339,347.096C692.664,359.119 690.73,376.4 690.668,378.667C690.287,392.478 685.924,404.975 676.688,416.214C665.1,430.317 654.395,444.809 642.183,458.2C627.725,474.054 612.542,489.225 600.601,507.246C590.375,522.679 584.321,539.54 582.324,557.799C580.832,571.43 585.189,584.065 590.585,596.326C593.16,602.177 595.799,608.064 601.322,612.793C603.109,609.445 604.665,606.724 606.043,603.915C622.052,571.298 641.857,541.15 665.95,513.986C689.21,487.761 715.058,464.25 743.049,443.088C760.04,430.242 777.759,418.41 793.925,404.404C823.871,378.46 842.662,345.389 856.883,309.182C864.723,289.224 870.213,268.56 875,247.706C876.286,242.104 879.402,239.486 885.074,238.561C897.13,236.594 908.992,233.43 921.217,232.501C926.134,232.127 927.836,230.073 927.747,224.936C927.313,199.807 927.245,174.672 927.197,149.538C927.191,146.489 926.118,145.202 923.296,144.203C907.331,138.554 891.507,132.503 875.515,126.931C851.539,118.576 827.874,109.295 803.511,102.094C798.357,100.571 793.343,97.931 787.193,100.742C751.319,117.135 716.134,134.922 680.995,152.793C649.276,168.925 617.901,185.734 586.167,201.835C557.976,216.138 530.31,231.399 502.559,246.509C475.102,261.459 447.687,276.484 420.31,291.576C402.537,301.374 384.854,311.335 367.159,321.273C365.049,322.458 362.701,323.355 362.132,326.349C359.162,341.962 357.221,357.749 354.757,373.433C352.34,388.818 349.397,404.104 346.679,419.417C342.77,441.435 339.271,463.531 334.598,485.424C329.89,507.474 326.483,529.816 319.002,551.196C317.926,554.271 318.922,555.783 321.939,555.898C326.245,556.063 330.546,556.358 334.811,555.017C349.428,550.419 359.185,540.413 365.831,527.094C372.892,512.946 377.783,498.002 382.055,482.781C385.775,469.525 388.685,456.125 391.201,442.622C392.749,434.312 394.196,425.975 395.356,417.604C396.994,405.78 398.901,393.947 399.569,382.054C399.968,374.949 411.241,365.146 415.611,362.563C416.611,361.971 417.719,361.56 418.721,360.97C429.586,354.568 440.454,348.168 451.359,341.834C465.349,333.708 479.401,325.69 493.592,317.911C518.362,304.332 542.942,290.312 571.587,286.27C584.035,284.514 596.448,284.384 609.722,286.8M520.812,167.671C511.117,173.847 500.742,178.747 490.463,183.839C457.25,200.289 424.034,216.735 390.912,233.368C362.971,247.4 335.17,261.711 307.271,275.828C304.797,277.08 302.793,278.65 301.389,281.01C296.708,288.877 291.946,296.697 287.36,304.619C270.012,334.592 251.684,363.972 233.245,393.271C212.664,425.974 190.335,457.51 167.266,488.513C166.202,489.943 164.787,491.248 164.761,493.486C174.136,498.943 183.808,496.374 193.068,493.695C209.431,488.961 221.874,478.009 233.292,465.955C257.825,440.057 277.794,410.816 295.418,379.918C309.835,354.64 317.285,327.031 321.884,298.567C322.619,294.014 324.082,290.951 328.225,288.747C344.379,280.151 360.419,271.341 376.486,262.581C435.664,230.315 495.257,198.83 555.047,167.717M432.184,165.667C425.249,164.118 402.102,166.19 397.519,168.465C363.415,185.397 329.301,202.311 295.248,219.347C274.574,229.691 215.931,251.251 215.267,257.532C214.659,263.293 213.784,269.034 212.803,274.745C210.699,286.991 208.422,299.206 206.273,311.444C204.752,320.109 203.284,328.783 201.868,337.465C199.965,349.14 198.136,360.826 196.274,372.507C200.102,368.195 202.795,363.486 205.588,358.837C228.568,320.586 253.162,283.355 277.117,245.72C278.497,243.553 280.232,241.832 282.535,240.695C290.586,236.719 298.662,232.792 306.688,228.765C340.445,211.829 374.189,194.867 407.935,177.908C415.578,174.067 423.207,170.199 432.184,165.667Z" style="fill-rule:nonzero;"/>
</svg>
