<svg version="1.1" id="Layer_1" xmlns="http://www.w3.org/2000/svg" xmlns:xlink="http://www.w3.org/1999/xlink" x="0px" y="0px"
	 width="100%" viewBox="0 0 528 528" enable-background="new 0 0 528 528" xml:space="preserve">
<path fill="#000000" opacity="1.000000" stroke="none" 
	d="
M358.162292,117.785538 
	C368.460175,121.290154 378.379395,124.689705 388.508362,128.161133 
	C390.114288,127.237427 389.955505,122.943306 393.288086,125.158508 
	C396.256439,127.131569 401.331879,126.897095 401.354095,132.092224 
	C401.468201,158.747147 401.493530,185.402481 401.518158,212.057693 
	C401.518707,212.653976 401.142975,213.250641 400.944519,213.841751 
	C390.405273,210.620956 389.949249,209.939529 389.725037,197.329834 
	C389.639038,192.493042 387.700287,191.192230 383.682953,193.198334 
	C382.706635,193.685883 382.063599,194.384872 381.730469,195.340302 
	C378.219696,205.409409 373.694366,214.782059 373.862762,226.281418 
	C374.577515,275.096741 374.163696,323.928558 374.172363,372.754333 
	C374.172974,376.208344 374.472992,379.738220 369.206787,379.245758 
	C367.002777,379.039642 365.778290,378.203430 365.752136,375.921173 
	C365.733063,374.255127 365.693451,372.589111 365.693024,370.923065 
	C365.680847,324.596863 365.679077,278.270660 365.638672,231.944458 
	C365.637146,230.184738 366.103424,228.337753 365.026001,226.305298 
	C354.418854,235.841324 342.385681,243.373657 332.419006,253.454163 
	C328.851471,257.062469 327.052032,260.910919 327.073425,266.238678 
	C327.247894,309.731049 327.138794,353.224579 327.103699,396.717743 
	C327.101013,400.037079 327.708679,403.788055 322.298157,403.294952 
	C320.112366,403.095734 318.837860,402.317566 318.817047,400.007935 
	C318.803558,398.508453 318.766266,397.009064 318.765198,395.509613 
	C318.737213,356.182373 318.712524,316.855133 318.687622,277.527893 
	C318.686157,275.228943 318.687408,272.929993 318.687408,269.827240 
	C313.907349,272.981445 311.307190,277.096069 308.559082,280.817993 
	C303.071625,288.249878 296.656036,291.840393 287.677338,287.919342 
	C285.629547,289.771088 286.405396,291.903778 286.403412,293.769806 
	C286.354584,339.929321 286.381561,386.088867 286.307007,432.248291 
	C286.303467,434.447235 287.559326,437.520264 283.691254,438.245514 
	C279.572540,439.017822 277.838898,437.715668 277.790253,433.312286 
	C277.700043,425.147827 277.752686,416.981750 277.753906,408.816345 
	C277.760406,365.822968 277.804016,322.829529 277.729187,279.836304 
	C277.720825,275.032806 276.988312,270.234009 276.690735,265.426910 
	C276.011292,254.451904 280.324158,245.268204 287.204193,237.124405 
	C291.622620,231.894348 296.783813,227.404953 302.028687,223.010437 
	C309.755066,216.536758 309.238953,210.519577 300.534485,205.225327 
	C292.219666,200.168045 283.588989,199.686462 274.765289,203.797470 
	C256.284454,212.407822 256.280029,212.425125 256.275696,232.475708 
	C256.260742,301.964996 256.259521,371.454285 256.238495,440.943573 
	C256.236694,446.895599 255.325348,447.849243 250.863205,447.379150 
	C248.857773,447.167877 247.782440,446.342926 247.743240,444.309631 
	C247.707916,442.477264 247.674881,440.644470 247.674789,438.811859 
	C247.671371,370.657776 247.671921,302.503662 247.671921,234.346405 
	C242.723419,252.773743 239.963821,272.922546 214.704742,275.399506 
	C213.435730,276.946808 214.021194,279.032715 214.018356,280.953552 
	C213.954330,324.279968 213.943420,367.606384 213.902863,410.932831 
	C213.899872,414.125732 214.246368,417.623108 209.221802,417.205292 
	C207.070053,417.026306 205.726074,416.281586 205.711304,413.941010 
	C205.700790,412.274872 205.656586,410.608887 205.655624,408.942810 
	C205.629974,364.616333 205.591354,320.289825 205.619553,275.963379 
	C205.621628,272.698212 205.202911,269.780304 203.061661,267.110352 
	C199.330597,262.458038 201.248322,257.243317 202.054337,252.218048 
	C202.733185,247.985504 203.647934,243.790802 204.628754,238.693192 
	C199.988586,243.750992 196.567139,248.688599 191.638306,252.191544 
	C189.041565,254.037064 186.489075,256.354309 183.452316,256.853638 
	C176.792282,257.948761 175.921967,261.797363 175.959335,267.762268 
	C176.216171,308.754211 176.078613,349.748535 176.140228,390.741974 
	C176.145950,394.544403 175.726883,397.515198 170.814896,396.909607 
	C168.885559,396.671814 167.720200,395.830688 167.707916,393.763947 
	C167.698013,392.097900 167.655777,390.431946 167.655457,388.765930 
	C167.647736,347.438934 167.602280,306.111877 167.706161,264.785156 
	C167.716019,260.861481 166.910843,258.547943 162.840149,256.877533 
	C155.268799,253.770630 152.087570,246.241364 156.534622,240.274246 
	C166.707520,226.624176 167.358017,210.583420 169.679718,194.871109 
	C170.991165,185.995667 172.299515,177.119171 173.501328,168.228561 
	C173.790787,166.087143 174.546600,164.456100 176.439011,163.332001 
	C187.986725,156.472687 197.584991,147.155136 207.609573,138.394409 
	C210.676529,135.714111 213.800583,134.440933 217.951996,134.498169 
	C237.277939,134.764618 256.610168,134.978516 275.935577,134.776154 
	C299.096130,134.533615 321.174072,129.183578 341.835815,118.735458 
	C347.325989,115.959244 352.241974,114.757278 358.162292,117.785538 
M367.110779,195.602493 
	C368.910156,190.768875 371.569519,186.063492 372.313812,181.072540 
	C373.529022,172.923538 377.060669,168.422058 385.654877,168.464844 
	C388.661316,168.479813 389.886932,166.582932 389.766785,163.475021 
	C389.567444,158.317245 389.494324,153.135757 389.764954,147.985107 
	C389.954315,144.381226 388.588562,142.497131 385.234863,141.361176 
	C375.300751,137.996384 365.403229,134.516525 355.557190,130.902435 
	C352.007599,129.599548 348.876953,129.921814 345.516022,131.538239 
	C305.865387,150.608215 267.269196,171.674362 228.795334,192.977631 
	C226.040634,194.502914 224.808762,196.644897 224.317032,199.680801 
	C222.163437,212.976578 219.946060,226.263718 217.562271,239.519897 
	C216.196136,247.116974 214.466873,254.648743 212.815506,262.623260 
	C220.281128,262.550934 224.000946,258.364136 226.509888,252.803085 
	C232.199753,240.191620 234.138260,226.674500 235.652115,213.091187 
	C235.948395,210.432693 236.613068,208.335220 239.099548,206.909119 
	C250.079102,200.611938 260.835602,193.915955 272.203522,188.315628 
	C279.197693,184.869980 286.562317,183.012268 294.427856,183.698685 
	C305.248169,184.642975 314.160706,189.046234 319.109009,199.050827 
	C324.029724,208.999619 320.456512,217.930939 314.044189,225.873688 
	C309.343018,231.696869 304.087250,237.069077 299.179413,242.729630 
	C294.417419,248.222000 290.853363,254.343140 289.631927,261.664734 
	C288.589447,267.913635 290.737244,274.389313 294.881744,276.977600 
	C295.154327,276.796722 295.534058,276.678864 295.683075,276.425385 
	C297.453278,273.413940 299.159454,270.364777 300.938843,267.358856 
	C311.610840,249.330856 326.762451,235.723846 343.802338,223.987213 
	C354.072388,216.913452 361.807709,207.741409 367.110779,195.602493 
M231.204971,169.810287 
	C225.866379,172.533264 220.665894,175.587631 215.150513,177.886475 
	C209.580490,180.208099 206.088043,184.151260 203.160172,189.231903 
	C193.431213,206.114273 183.246689,222.719315 171.694824,238.447418 
	C170.481018,240.100037 168.664536,241.592941 168.904541,244.363693 
	C175.218292,246.153534 180.081558,243.102539 184.075821,239.149673 
	C197.896667,225.472031 208.974365,210.020370 212.546906,190.368790 
	C213.222351,186.653366 214.847641,184.491653 218.066727,182.794495 
	C232.498947,175.185501 246.845657,167.414246 261.219147,159.693954 
	C267.262817,156.447769 273.296448,153.182816 280.243591,149.436172 
	C275.924805,149.208984 272.893311,148.960449 269.842010,150.511200 
	C257.228607,156.921692 244.522003,163.148834 231.204971,169.810287 
M204.619614,169.041016 
	C217.263748,162.685226 229.907867,156.329437 243.005142,149.745865 
	C238.853882,147.469437 236.064224,149.429230 233.305344,150.790466 
	C218.981842,157.857819 204.995041,165.713104 190.290405,171.856461 
	C183.277161,174.786469 181.090286,178.967224 180.487579,185.551758 
	C179.855698,192.455078 177.777252,199.195480 177.539932,207.258469 
	C184.980545,195.629547 191.828094,185.001144 198.580688,174.312790 
	C199.957184,172.134003 201.450958,170.244003 204.619614,169.041016 
z"/>
</svg>