<svg version="1.1" id="Layer_1" xmlns="http://www.w3.org/2000/svg" xmlns:xlink="http://www.w3.org/1999/xlink" x="0px" y="0px"
	 width="100%" viewBox="0 0 1197 1463" enable-background="new 0 0 1197 1463" xml:space="preserve">
<path fill="#000000" opacity="1.000000" stroke="none" 
	d="
M1.000000,508.000000 
	C1.000000,339.064728 1.000000,170.129440 1.000000,1.000000 
	C199.692459,1.000000 398.384979,1.000000 597.538879,1.468657 
	C598.000244,123.871040 598.000244,245.804764 598.000244,368.660278 
	C596.976318,367.564667 596.555725,367.145844 596.169983,366.697174 
	C590.016052,359.540009 584.026062,352.230469 577.597900,345.328979 
	C576.091125,343.711182 572.903992,342.405182 570.836365,342.794708 
	C564.262390,344.033203 563.286621,349.754517 568.221313,355.705170 
	C574.452576,363.219360 580.601746,370.801941 586.863831,378.290192 
	C592.583923,385.130432 598.407349,391.884308 604.262878,398.767487 
	C605.033813,398.189178 605.650208,397.883606 606.054626,397.400574 
	C618.273987,382.807007 630.549133,368.258728 642.612915,353.537323 
	C645.182129,350.402100 644.460510,346.728058 641.457275,344.139496 
	C638.448120,341.545807 634.904602,341.678894 632.086487,344.525970 
	C629.183044,347.459198 626.684509,350.794128 624.018860,353.961731 
	C619.965332,358.778473 615.920410,363.602509 611.000000,369.461609 
	C611.000000,245.603302 611.000000,123.301651 611.000000,1.000000 
	C806.591064,1.000000 1002.182129,1.000000 1198.000000,1.000000 
	C1198.000000,169.692429 1198.000000,338.384949 1197.650146,507.495789 
	C1196.707520,506.975128 1196.018799,506.082672 1195.536499,505.089935 
	C1190.148315,493.999207 1181.783203,486.528046 1169.427368,484.419495 
	C1165.066895,483.675323 1160.515503,484.049927 1155.883545,483.622986 
	C1138.815186,458.565247 1121.867065,433.830444 1105.024902,409.023590 
	C1081.477173,374.339752 1057.990479,339.614502 1034.520752,304.877716 
	C1029.612915,297.613800 1024.367310,290.500793 1020.287170,282.784271 
	C1017.891724,278.253784 1015.662048,275.891449 1010.267212,275.905975 
	C953.442383,276.059143 896.617004,276.000519 839.791748,276.001770 
	C838.625366,276.001801 837.452026,275.940155 836.293823,276.041992 
	C832.390259,276.385071 830.330872,278.566528 830.016724,282.461365 
	C829.588623,287.770477 831.851501,289.991455 837.881775,289.992706 
	C892.040710,290.003723 946.199890,290.052948 1000.358337,289.897278 
	C1004.667786,289.884918 1007.265137,291.046143 1009.566406,294.766602 
	C1014.092529,302.083740 1019.227905,309.022400 1024.060181,316.152191 
	C1044.510986,346.326355 1064.934326,376.519226 1085.385254,406.693390 
	C1099.608154,427.678528 1113.872314,448.635681 1128.088013,469.625702 
	C1131.099976,474.073029 1133.981445,478.608826 1137.300049,483.679871 
	C777.754456,483.679871 419.147278,483.679871 59.820362,483.679871 
	C61.119297,481.558594 61.984249,480.009552 62.976082,478.546478 
	C81.662872,450.981201 100.385857,423.440491 119.057953,395.865326 
	C142.097336,361.840485 165.123169,327.806366 188.065018,293.715820 
	C189.935104,290.936951 192.001068,289.917358 195.370605,289.924011 
	C249.362701,290.031128 303.355072,289.999756 357.347382,289.998138 
	C358.847046,289.998108 360.360962,290.108276 361.843811,289.945038 
	C367.048798,289.371979 369.415466,284.742584 367.030243,280.097321 
	C365.255737,276.641449 362.418091,275.936737 358.758514,275.942200 
	C302.599976,276.026306 246.441208,276.038971 190.282700,275.943970 
	C184.348495,275.933929 180.658981,276.872040 176.828537,283.008514 
	C162.979904,305.194366 147.654861,326.456696 132.955338,348.113892 
	C112.485016,378.273346 92.080162,408.477203 71.639099,438.656555 
	C61.417717,453.747498 51.178177,468.826141 40.489975,483.936523 
	C22.640764,483.348389 10.036249,490.549347 2.832706,506.663940 
	C2.565029,507.262726 1.626105,507.561432 1.000000,508.000000 
z"/>
<path fill="#1E2B38" opacity="1.000000" stroke="none" 
	d="
M1156.051270,483.913757 
	C1160.515503,484.049927 1165.066895,483.675323 1169.427368,484.419495 
	C1181.783203,486.528046 1190.148315,493.999207 1195.536499,505.089935 
	C1196.018799,506.082672 1196.707520,506.975128 1197.650146,507.957062 
	C1198.000000,818.687561 1198.000000,1129.375122 1197.653198,1440.577393 
	C1192.706177,1446.710571 1188.314087,1452.519897 1183.414185,1457.863281 
	C1181.114014,1460.371704 1177.835327,1461.982544 1175.000000,1464.000000 
	C791.645752,1464.000000 408.291534,1464.000000 24.433376,1463.652954 
	C23.636650,1462.917480 23.428312,1462.354614 23.038759,1462.166138 
	C13.597365,1457.596436 6.422460,1450.886475 2.630063,1440.887085 
	C2.463732,1440.448364 1.560158,1440.289307 0.999997,1440.000000 
	C1.000000,1129.645752 1.000000,819.291565 1.000000,508.468658 
	C1.626105,507.561432 2.565029,507.262726 2.832706,506.663940 
	C10.036249,490.549347 22.640764,483.348389 40.397995,484.308167 
	C39.609188,485.121735 38.493885,485.822052 37.295555,486.020172 
	C29.517630,487.306091 22.067961,489.211578 15.866465,494.575653 
	C6.465106,502.707520 3.014335,513.214172 3.014479,525.238342 
	C3.018068,824.378357 3.017292,1123.518311 3.017529,1422.658325 
	C3.017530,1424.158203 2.944048,1425.662720 3.034864,1427.157227 
	C4.245368,1447.076660 17.828508,1461.920044 38.728283,1461.924683 
	C412.694946,1462.008179 786.661621,1461.995117 1160.628296,1461.960205 
	C1181.814087,1461.958130 1195.922241,1445.740967 1195.927368,1426.981323 
	C1196.009155,1125.008179 1196.027100,823.035095 1195.712524,521.062378 
	C1195.705566,514.362061 1192.673218,507.070709 1189.238159,501.098358 
	C1183.078857,490.389099 1172.132202,487.139038 1160.449341,485.948334 
	C1158.929932,485.793488 1157.514771,484.617004 1156.051270,483.913757 
z"/>
<path fill="#2D3E50" opacity="1.000000" stroke="none" 
	d="
M610.536804,1.000000 
	C611.000000,123.301651 611.000000,245.603302 611.000000,369.461609 
	C615.920410,363.602509 619.965332,358.778473 624.018860,353.961731 
	C626.684509,350.794128 629.183044,347.459198 632.086487,344.525970 
	C634.904602,341.678894 638.448120,341.545807 641.457275,344.139496 
	C644.460510,346.728058 645.182129,350.402100 642.612915,353.537323 
	C630.549133,368.258728 618.273987,382.807007 606.054626,397.400574 
	C605.650208,397.883606 605.033813,398.189178 604.262878,398.767487 
	C598.407349,391.884308 592.583923,385.130432 586.863831,378.290192 
	C580.601746,370.801941 574.452576,363.219360 568.221313,355.705170 
	C563.286621,349.754517 564.262390,344.033203 570.836365,342.794708 
	C572.903992,342.405182 576.091125,343.711182 577.597900,345.328979 
	C584.026062,352.230469 590.016052,359.540009 596.169983,366.697174 
	C596.555725,367.145844 596.976318,367.564667 598.000244,368.660278 
	C598.000244,245.804764 598.000244,123.871040 598.000122,1.468657 
	C602.024536,1.000000 606.049072,1.000000 610.536804,1.000000 
z"/>
<path fill="#000000" opacity="1.000000" stroke="none" 
	d="
M0.999997,1440.468750 
	C1.560158,1440.289307 2.463732,1440.448364 2.630063,1440.887085 
	C6.422460,1450.886475 13.597365,1457.596436 23.038759,1462.166138 
	C23.428312,1462.354614 23.636650,1462.917480 23.964720,1463.652954 
	C16.405445,1464.000000 8.810891,1464.000000 1.000000,1464.000000 
	C1.000000,1456.313843 1.000000,1448.625610 0.999997,1440.468750 
z"/>
<path fill="#000000" opacity="1.000000" stroke="none" 
	d="
M1175.468750,1464.000000 
	C1177.835327,1461.982544 1181.114014,1460.371704 1183.414185,1457.863281 
	C1188.314087,1452.519897 1192.706177,1446.710571 1197.653198,1441.046143 
	C1198.000000,1448.592896 1198.000000,1456.185913 1198.000000,1464.000000 
	C1190.647339,1464.000000 1183.292358,1464.000000 1175.468750,1464.000000 
z"/>
<path fill="#2D3E50" opacity="1.000000" stroke="none" 
	d="
M1155.883545,483.622986 
	C1157.514771,484.617004 1158.929932,485.793488 1160.449341,485.948334 
	C1172.132202,487.139038 1183.078857,490.389099 1189.238159,501.098358 
	C1192.673218,507.070709 1195.705566,514.362061 1195.712524,521.062378 
	C1196.027100,823.035095 1196.009155,1125.008179 1195.927368,1426.981323 
	C1195.922241,1445.740967 1181.814087,1461.958130 1160.628296,1461.960205 
	C786.661621,1461.995117 412.694946,1462.008179 38.728283,1461.924683 
	C17.828508,1461.920044 4.245368,1447.076660 3.034864,1427.157227 
	C2.944048,1425.662720 3.017530,1424.158203 3.017529,1422.658325 
	C3.017292,1123.518311 3.018068,824.378357 3.014479,525.238342 
	C3.014335,513.214172 6.465106,502.707520 15.866465,494.575653 
	C22.067961,489.211578 29.517630,487.306091 37.295555,486.020172 
	C38.493885,485.822052 39.609188,485.121735 40.854870,484.282013 
	C51.178177,468.826141 61.417717,453.747498 71.639099,438.656555 
	C92.080162,408.477203 112.485016,378.273346 132.955338,348.113892 
	C147.654861,326.456696 162.979904,305.194366 176.828537,283.008514 
	C180.658981,276.872040 184.348495,275.933929 190.282700,275.943970 
	C246.441208,276.038971 302.599976,276.026306 358.758514,275.942200 
	C362.418091,275.936737 365.255737,276.641449 367.030243,280.097321 
	C369.415466,284.742584 367.048798,289.371979 361.843811,289.945038 
	C360.360962,290.108276 358.847046,289.998108 357.347382,289.998138 
	C303.355072,289.999756 249.362701,290.031128 195.370605,289.924011 
	C192.001068,289.917358 189.935104,290.936951 188.065018,293.715820 
	C165.123169,327.806366 142.097336,361.840485 119.057953,395.865326 
	C100.385857,423.440491 81.662872,450.981201 62.976082,478.546478 
	C61.984249,480.009552 61.119297,481.558594 59.820362,483.679871 
	C419.147278,483.679871 777.754456,483.679871 1137.300049,483.679871 
	C1133.981445,478.608826 1131.099976,474.073029 1128.088013,469.625702 
	C1113.872314,448.635681 1099.608154,427.678528 1085.385254,406.693390 
	C1064.934326,376.519226 1044.510986,346.326355 1024.060181,316.152191 
	C1019.227905,309.022400 1014.092529,302.083740 1009.566406,294.766602 
	C1007.265137,291.046143 1004.667786,289.884918 1000.358337,289.897278 
	C946.199890,290.052948 892.040710,290.003723 837.881775,289.992706 
	C831.851501,289.991455 829.588623,287.770477 830.016724,282.461365 
	C830.330872,278.566528 832.390259,276.385071 836.293823,276.041992 
	C837.452026,275.940155 838.625366,276.001801 839.791748,276.001770 
	C896.617004,276.000519 953.442383,276.059143 1010.267212,275.905975 
	C1015.662048,275.891449 1017.891724,278.253784 1020.287170,282.784271 
	C1024.367310,290.500793 1029.612915,297.613800 1034.520752,304.877716 
	C1057.990479,339.614502 1081.477173,374.339752 1105.024902,409.023590 
	C1121.867065,433.830444 1138.815186,458.565247 1155.883545,483.622986 
M900.495117,1069.568237 
	C875.039795,1069.519287 849.584534,1069.464844 824.129211,1069.446533 
	C823.342896,1069.445923 822.556396,1069.818848 821.075195,1070.343872 
	C820.716797,1071.888672 820.045837,1073.433350 820.044800,1074.978394 
	C819.993835,1152.406738 819.989868,1229.835205 820.072571,1307.263428 
	C820.074280,1308.836670 821.157227,1310.408691 822.408447,1312.538208 
	C847.935608,1312.606201 873.462830,1312.680786 898.990051,1312.709961 
	C899.745667,1312.710815 900.501831,1312.235107 901.947571,1311.650757 
	C902.298218,1310.268066 902.954956,1308.885498 902.955811,1307.502563 
	C903.005127,1229.904053 903.010010,1152.305542 902.925720,1074.707153 
	C902.924072,1073.143311 901.816895,1071.580688 900.495117,1069.568237 
M882.458374,859.559692 
	C882.458374,865.677307 882.458374,871.794983 882.458374,878.255737 
	C918.707214,878.255737 954.542725,878.255737 990.456299,878.255737 
	C990.456299,861.635071 990.456299,845.273926 990.456299,828.782715 
	C954.406372,828.782715 918.691528,828.782715 882.659424,828.782715 
	C882.659424,837.149170 882.659424,845.246155 881.634521,853.467773 
	C879.829041,853.295349 878.024048,852.979126 876.218079,852.973511 
	C862.727722,852.931335 849.223633,853.313538 835.752075,852.809265 
	C828.122681,852.523682 821.487061,854.109924 815.041199,858.113525 
	C809.322815,861.665222 803.157776,864.497742 797.276611,867.601990 
	C755.542175,810.475403 701.064087,775.216858 630.992676,766.665771 
	C561.276001,758.157898 499.506744,777.835571 445.421387,823.328430 
	C442.227234,810.365906 439.351837,798.409668 436.321838,786.492676 
	C433.950165,777.164856 431.386902,767.885864 428.424164,757.882141 
	C426.507965,757.588135 424.592499,757.043762 422.675476,757.038330 
	C401.253937,756.977600 379.832153,757.000000 358.410431,757.000000 
	C346.053101,757.000000 346.116058,756.999084 345.935303,744.835938 
	C345.905304,742.816223 345.054230,740.808594 344.517120,738.082642 
	C342.794586,737.580933 341.073151,736.646240 339.349304,736.641724 
	C306.352875,736.555054 273.356140,736.577637 240.359451,736.577637 
	C238.722229,736.577637 237.085007,736.577637 235.308823,736.577637 
	C235.308823,753.442871 235.308823,769.831177 235.308823,786.268188 
	C271.810516,786.268188 308.016052,786.268188 344.789673,786.268188 
	C344.789673,778.814087 344.789673,771.748169 344.789673,764.531067 
	C370.850098,764.531067 396.340668,764.481384 421.829468,764.671021 
	C423.170532,764.681030 425.355072,766.501709 425.700165,767.849792 
	C430.530731,786.720459 435.192688,805.636169 439.614807,824.606384 
	C440.037720,826.420532 439.155457,829.153137 437.906403,830.645020 
	C428.408478,841.989441 417.751953,852.473633 409.161835,864.449219 
	C371.368530,917.137207 357.789612,976.132751 368.539429,1039.752563 
	C381.298615,1115.264526 422.951263,1171.202759 489.284485,1209.004028 
	C493.316132,1211.301636 497.520294,1213.296387 501.767609,1215.495972 
	C499.622803,1224.276245 497.392242,1232.804199 495.515686,1241.409302 
	C494.837463,1244.519531 493.389954,1245.226685 490.407867,1245.209351 
	C469.077423,1245.085449 447.745880,1245.149414 426.414734,1245.127075 
	C425.169617,1245.125732 423.924744,1244.892212 422.215271,1244.719971 
	C422.215271,1236.943359 422.215271,1229.540161 422.215271,1222.279785 
	C385.967865,1222.279785 350.230927,1222.279785 314.406708,1222.279785 
	C314.406708,1238.905396 314.406708,1255.164307 314.406708,1271.616699 
	C350.494873,1271.616699 386.344025,1271.616699 422.630981,1271.616699 
	C422.630981,1264.659546 422.630981,1258.063721 422.630981,1251.028076 
	C424.692627,1251.028076 426.319946,1251.027954 427.947266,1251.027954 
	C449.278442,1251.028076 470.612000,1250.856201 491.939178,1251.149292 
	C497.280823,1251.222778 499.739655,1249.572510 500.808350,1244.303467 
	C502.579041,1235.573486 505.003357,1226.976196 507.205261,1218.109619 
	C508.432892,1218.441040 509.080872,1218.534180 509.661163,1218.784302 
	C526.875183,1226.206055 544.723633,1231.701782 563.275696,1234.140015 
	C577.103210,1235.957397 591.118347,1236.442139 605.067749,1237.185669 
	C609.868408,1237.441406 612.847656,1234.165283 612.783691,1229.920410 
	C612.723877,1225.945923 609.799866,1223.153442 605.240906,1222.873047 
	C603.082153,1222.740356 600.909058,1222.861816 598.743164,1222.823853 
	C569.599792,1222.313477 541.582825,1216.488159 514.688965,1205.191284 
	C511.679535,1203.927246 510.818726,1202.660278 511.684998,1199.267578 
	C517.204529,1177.650391 522.451416,1155.963379 527.769226,1134.294800 
	C530.171326,1124.507080 532.530090,1114.708740 534.978699,1104.626587 
	C532.786987,1104.149414 531.253845,1103.815674 529.381958,1103.408203 
	C521.344116,1136.009521 513.406372,1168.204712 505.208527,1201.455200 
	C431.037476,1160.768799 387.121399,1100.773560 380.591339,1016.571411 
	C375.446136,950.225464 398.058289,893.268982 444.565582,844.408386 
	C449.745850,865.362732 454.630737,885.122314 459.591736,905.189758 
	C461.855011,904.473389 463.354401,903.998779 464.955139,903.492065 
	C464.666809,901.994812 464.498749,900.851624 464.223907,899.734741 
	C459.728180,881.465637 455.335693,863.169617 450.616608,844.958252 
	C449.644104,841.205200 450.122284,838.741150 453.216034,836.359436 
	C460.866516,830.469421 467.975037,823.809387 475.948822,818.416199 
	C529.400635,782.263611 587.981995,771.232666 650.850403,784.796448 
	C698.679138,795.115356 738.082275,820.235352 770.270813,856.829346 
	C775.144104,862.369629 779.347839,868.498840 784.113281,874.682678 
	C762.164917,886.361633 740.904236,897.674622 718.846313,909.411865 
	C719.342834,904.077087 719.921631,899.675598 720.131226,895.256653 
	C720.692993,883.407898 712.947388,877.080566 701.499573,880.264343 
	C697.206360,881.458313 693.154419,883.547974 689.031799,885.320740 
	C680.787109,888.866028 672.840210,893.414673 664.288818,895.875916 
	C640.990723,902.581543 617.019775,905.659302 592.808350,906.428772 
	C554.621277,907.642517 524.779663,922.835815 505.735443,957.017029 
	C489.633179,985.917969 487.017670,1016.297241 495.453918,1047.843262 
	C496.506378,1051.778809 496.336517,1054.572510 494.369263,1057.985474 
	C485.350281,1073.631714 481.201630,1090.999390 477.210144,1108.376709 
	C476.082947,1113.284058 478.340271,1116.860596 482.379242,1117.666504 
	C486.238708,1118.436646 489.469055,1116.242188 490.766663,1111.655518 
	C491.899078,1107.652710 492.707977,1103.559692 493.732819,1099.525146 
	C496.675842,1087.938721 500.105743,1076.531982 505.747559,1066.443604 
	C512.214294,1069.970459 518.096558,1073.800903 524.453552,1076.521973 
	C539.914978,1083.140015 556.338684,1086.303345 573.007446,1087.234619 
	C610.658813,1089.338257 642.524841,1077.838501 663.848511,1045.015991 
	C688.395020,1007.232666 703.825500,965.435120 715.872803,922.293518 
	C716.884033,918.672241 718.235046,916.264893 721.743164,914.437805 
	C742.568909,903.591614 763.244507,892.457153 783.981079,881.439453 
	C785.092224,880.849121 786.298767,880.438293 787.704529,879.840210 
	C813.463806,920.635315 825.692627,964.556335 823.001526,1013.602722 
	C808.853088,1000.811523 795.656006,988.850220 782.420349,976.931763 
	C778.113525,973.053589 773.919128,972.744751 770.994629,975.929932 
	C768.007019,979.183777 768.601990,983.303162 772.902771,987.209717 
	C788.937927,1001.775085 805.008301,1016.301941 821.117065,1030.785889 
	C825.428467,1034.662476 829.362671,1034.529053 833.325623,1030.184692 
	C848.037048,1014.057312 862.672729,997.860413 877.256958,981.617859 
	C880.740234,977.738464 880.761902,973.835815 877.746033,970.956482 
	C874.666748,968.016541 870.437500,968.461548 866.793152,972.398926 
	C860.341675,979.369141 854.026489,986.465515 847.645752,993.501282 
	C844.795837,996.643799 841.925110,999.767273 838.230103,1003.812134 
	C838.280334,955.718567 825.631409,912.440430 800.500549,872.664429 
	C808.210632,868.550049 815.165771,864.605896 822.345947,861.126221 
	C825.063232,859.809448 828.291321,858.972168 831.301208,858.928772 
	C848.421387,858.682007 865.545959,858.741577 882.458374,859.559692 
M751.500122,1312.752686 
	C770.595947,1312.752686 789.691772,1312.752686 808.740845,1312.752686 
	C808.740845,1244.893921 808.740845,1177.697754 808.740845,1110.472534 
	C782.346558,1110.472534 756.290955,1110.472534 730.264526,1110.472534 
	C730.264526,1177.994995 730.264526,1245.184937 730.264526,1312.752686 
	C737.230774,1312.752686 743.865479,1312.752686 751.500122,1312.752686 
M717.084229,1263.500000 
	C717.084229,1226.436157 717.084229,1189.372314 717.084229,1152.441406 
	C690.251831,1152.441406 664.191162,1152.441406 638.325684,1152.441406 
	C638.325684,1206.035156 638.325684,1259.246094 638.325684,1312.354126 
	C664.763489,1312.354126 690.809570,1312.354126 717.084229,1312.354126 
	C717.084229,1296.137695 717.084229,1280.318848 717.084229,1263.500000 
M922.182312,598.286316 
	C900.878418,561.528625 852.737122,555.046448 822.963867,585.314514 
	C816.722900,591.659180 811.955627,599.500854 806.796753,606.854370 
	C784.217285,639.038452 761.808899,671.342651 739.203552,703.508545 
	C728.044006,719.387939 724.047546,736.547607 728.494751,755.616760 
	C728.942078,757.534668 728.241577,760.185242 727.149963,761.911682 
	C723.550598,767.603821 719.526855,773.027649 715.420593,778.905945 
	C737.944702,791.696411 759.207458,805.031677 777.587158,823.237366 
	C781.895813,817.094910 785.772034,811.304199 789.969788,805.756836 
	C791.126831,804.227783 793.144958,802.629089 794.933289,802.409668 
	C814.888672,799.961182 829.947021,790.093628 841.326965,773.623230 
	C866.420898,737.304016 891.869202,701.229736 917.127075,665.023621 
	C931.745361,644.068909 933.674255,622.018005 922.182312,598.286316 
z"/>
<path fill="#F9FAFA" opacity="1.000000" stroke="none" 
	d="
M428.908752,758.585144 
	C431.386902,767.885864 433.950165,777.164856 436.321838,786.492676 
	C439.351837,798.409668 442.227234,810.365906 445.421387,823.328430 
	C499.506744,777.835571 561.276001,758.157898 630.992676,766.665771 
	C701.064087,775.216858 755.542175,810.475403 797.276611,867.601990 
	C803.157776,864.497742 809.322815,861.665222 815.041199,858.113525 
	C821.487061,854.109924 828.122681,852.523682 835.752075,852.809265 
	C849.223633,853.313538 862.727722,852.931335 876.218079,852.973511 
	C878.024048,852.979126 879.829041,853.295349 882.253174,853.687256 
	C882.804321,855.503418 882.736694,857.100220 882.669067,858.696960 
	C865.545959,858.741577 848.421387,858.682007 831.301208,858.928772 
	C828.291321,858.972168 825.063232,859.809448 822.345947,861.126221 
	C815.165771,864.605896 808.210632,868.550049 800.500549,872.664429 
	C825.631409,912.440430 838.280334,955.718567 838.230103,1003.812134 
	C841.925110,999.767273 844.795837,996.643799 847.645752,993.501282 
	C854.026489,986.465515 860.341675,979.369141 866.793152,972.398926 
	C870.437500,968.461548 874.666748,968.016541 877.746033,970.956482 
	C880.761902,973.835815 880.740234,977.738464 877.256958,981.617859 
	C862.672729,997.860413 848.037048,1014.057312 833.325623,1030.184692 
	C829.362671,1034.529053 825.428467,1034.662476 821.117065,1030.785889 
	C805.008301,1016.301941 788.937927,1001.775085 772.902771,987.209717 
	C768.601990,983.303162 768.007019,979.183777 770.994629,975.929932 
	C773.919128,972.744751 778.113525,973.053589 782.420349,976.931763 
	C795.656006,988.850220 808.853088,1000.811523 823.001526,1013.602722 
	C825.692627,964.556335 813.463806,920.635315 787.704529,879.840210 
	C786.298767,880.438293 785.092224,880.849121 783.981079,881.439453 
	C763.244507,892.457153 742.568909,903.591614 721.743164,914.437805 
	C718.235046,916.264893 716.884033,918.672241 715.872803,922.293518 
	C703.825500,965.435120 688.395020,1007.232666 663.848511,1045.015991 
	C642.524841,1077.838501 610.658813,1089.338257 573.007446,1087.234619 
	C556.338684,1086.303345 539.914978,1083.140015 524.453552,1076.521973 
	C518.096558,1073.800903 512.214294,1069.970459 505.747559,1066.443604 
	C500.105743,1076.531982 496.675842,1087.938721 493.732819,1099.525146 
	C492.707977,1103.559692 491.899078,1107.652710 490.766663,1111.655518 
	C489.469055,1116.242188 486.238708,1118.436646 482.379242,1117.666504 
	C478.340271,1116.860596 476.082947,1113.284058 477.210144,1108.376709 
	C481.201630,1090.999390 485.350281,1073.631714 494.369263,1057.985474 
	C496.336517,1054.572510 496.506378,1051.778809 495.453918,1047.843262 
	C487.017670,1016.297241 489.633179,985.917969 505.735443,957.017029 
	C524.779663,922.835815 554.621277,907.642517 592.808350,906.428772 
	C617.019775,905.659302 640.990723,902.581543 664.288818,895.875916 
	C672.840210,893.414673 680.787109,888.866028 689.031799,885.320740 
	C693.154419,883.547974 697.206360,881.458313 701.499573,880.264343 
	C712.947388,877.080566 720.692993,883.407898 720.131226,895.256653 
	C719.921631,899.675598 719.342834,904.077087 718.846313,909.411865 
	C740.904236,897.674622 762.164917,886.361633 784.113281,874.682678 
	C779.347839,868.498840 775.144104,862.369629 770.270813,856.829346 
	C738.082275,820.235352 698.679138,795.115356 650.850403,784.796448 
	C587.981995,771.232666 529.400635,782.263611 475.948822,818.416199 
	C467.975037,823.809387 460.866516,830.469421 453.216034,836.359436 
	C450.122284,838.741150 449.644104,841.205200 450.616608,844.958252 
	C455.335693,863.169617 459.728180,881.465637 464.223907,899.734741 
	C464.498749,900.851624 464.666809,901.994812 464.955139,903.492065 
	C463.354401,903.998779 461.855011,904.473389 459.591736,905.189758 
	C454.630737,885.122314 449.745850,865.362732 444.565582,844.408386 
	C398.058289,893.268982 375.446136,950.225464 380.591339,1016.571411 
	C387.121399,1100.773560 431.037476,1160.768799 505.208527,1201.455200 
	C513.406372,1168.204712 521.344116,1136.009521 529.381958,1103.408203 
	C531.253845,1103.815674 532.786987,1104.149414 534.978699,1104.626587 
	C532.530090,1114.708740 530.171326,1124.507080 527.769226,1134.294800 
	C522.451416,1155.963379 517.204529,1177.650391 511.684998,1199.267578 
	C510.818726,1202.660278 511.679535,1203.927246 514.688965,1205.191284 
	C541.582825,1216.488159 569.599792,1222.313477 598.743164,1222.823853 
	C600.909058,1222.861816 603.082153,1222.740356 605.240906,1222.873047 
	C609.799866,1223.153442 612.723877,1225.945923 612.783691,1229.920410 
	C612.847656,1234.165283 609.868408,1237.441406 605.067749,1237.185669 
	C591.118347,1236.442139 577.103210,1235.957397 563.275696,1234.140015 
	C544.723633,1231.701782 526.875183,1226.206055 509.661163,1218.784302 
	C509.080872,1218.534180 508.432892,1218.441040 507.205261,1218.109619 
	C505.003357,1226.976196 502.579041,1235.573486 500.808350,1244.303467 
	C499.739655,1249.572510 497.280823,1251.222778 491.939178,1251.149292 
	C470.612000,1250.856201 449.278442,1251.028076 427.947266,1251.027954 
	C426.319946,1251.027954 424.692627,1251.028076 422.630981,1251.028076 
	C422.630981,1258.063721 422.630981,1264.659546 422.630981,1271.616699 
	C386.344025,1271.616699 350.494873,1271.616699 314.406708,1271.616699 
	C314.406708,1255.164307 314.406708,1238.905396 314.406708,1222.279785 
	C350.230927,1222.279785 385.967865,1222.279785 422.215271,1222.279785 
	C422.215271,1229.540161 422.215271,1236.943359 422.215271,1244.719971 
	C423.924744,1244.892212 425.169617,1245.125732 426.414734,1245.127075 
	C447.745880,1245.149414 469.077423,1245.085449 490.407867,1245.209351 
	C493.389954,1245.226685 494.837463,1244.519531 495.515686,1241.409302 
	C497.392242,1232.804199 499.622803,1224.276245 501.767609,1215.495972 
	C497.520294,1213.296387 493.316132,1211.301636 489.284485,1209.004028 
	C422.951263,1171.202759 381.298615,1115.264526 368.539429,1039.752563 
	C357.789612,976.132751 371.368530,917.137207 409.161835,864.449219 
	C417.751953,852.473633 428.408478,841.989441 437.906403,830.645020 
	C439.155457,829.153137 440.037720,826.420532 439.614807,824.606384 
	C435.192688,805.636169 430.530731,786.720459 425.700165,767.849792 
	C425.355072,766.501709 423.170532,764.681030 421.829468,764.671021 
	C396.340668,764.481384 370.850098,764.531067 344.789673,764.531067 
	C344.789673,771.748169 344.789673,778.814087 344.789673,786.268188 
	C308.016052,786.268188 271.810516,786.268188 235.308823,786.268188 
	C235.308823,769.831177 235.308823,753.442871 235.308823,736.577637 
	C237.085007,736.577637 238.722229,736.577637 240.359451,736.577637 
	C273.356140,736.577637 306.352875,736.555054 339.349304,736.641724 
	C341.073151,736.646240 342.794586,737.580933 344.298279,738.786621 
	C344.079468,745.738586 344.079468,751.986633 344.079468,758.585144 
	C372.765015,758.585144 400.836884,758.585144 428.908752,758.585144 
M573.626465,1073.333984 
	C594.993286,1074.552002 615.165222,1070.855957 632.877686,1058.118774 
	C645.913696,1048.744385 655.227112,1035.826660 661.851990,1021.675049 
	C673.693115,996.380676 684.110657,970.414673 694.880737,944.628174 
	C697.218506,939.030945 698.532654,933.006287 700.752197,925.762268 
	C690.619141,931.118835 681.767334,935.798096 672.690002,940.596619 
	C671.682861,938.733826 670.926453,937.334717 669.977234,935.579102 
	C671.826904,934.545349 673.384155,933.642273 674.970703,932.794067 
	C683.046753,928.476074 691.154175,924.215637 699.188599,919.821716 
	C700.573608,919.064270 702.497986,917.928040 702.746765,916.681946 
	C704.231140,909.248047 705.296997,901.730469 706.742004,892.759094 
	C701.246155,895.220703 697.256042,897.163696 693.149353,898.816895 
	C682.685852,903.028992 672.449585,908.168274 661.618774,911.031494 
	C637.233948,917.477966 612.175842,919.614441 586.995056,920.893127 
	C564.950928,922.012573 545.285095,929.567993 530.288086,946.546143 
	C509.774323,969.769897 502.491425,997.194031 505.441101,1027.656494 
	C505.776855,1031.124023 506.615814,1034.542725 507.395874,1038.975342 
	C521.418213,1023.683350 537.268494,1013.058838 554.841858,1005.069824 
	C564.672791,1000.600769 574.837036,996.838379 584.962219,993.054871 
	C589.781433,991.254089 593.580444,992.988586 594.935669,996.845215 
	C596.399292,1001.010315 594.391968,1004.417786 589.292786,1006.332520 
	C587.735413,1006.917358 586.120422,1007.347290 584.554993,1007.912415 
	C566.795959,1014.324341 549.612122,1021.894226 534.388977,1033.298340 
	C526.696899,1039.060669 519.590271,1045.431641 513.788940,1053.886230 
	C517.090088,1056.227661 519.748840,1058.529785 522.763855,1060.181763 
	C538.291504,1068.689697 555.413086,1071.244873 573.626465,1073.333984 
z"/>
<path fill="#FEFEFE" opacity="1.000000" stroke="none" 
	d="
M901.257751,1311.981567 
	C900.501831,1312.235107 899.745667,1312.710815 898.990051,1312.709961 
	C873.462830,1312.680786 847.935608,1312.606201 822.126221,1311.795166 
	C821.855225,1262.977539 821.882263,1214.903076 821.872131,1166.828613 
	C821.865356,1134.558350 821.805847,1102.287964 821.769958,1070.017700 
	C822.556396,1069.818848 823.342896,1069.445923 824.129211,1069.446533 
	C849.584534,1069.464844 875.039795,1069.519287 900.820801,1070.259033 
	C901.136475,1147.636230 901.124451,1224.322632 901.122375,1301.009155 
	C901.122314,1304.666626 901.210632,1308.324097 901.257751,1311.981567 
z"/>
<path fill="#FEFEFE" opacity="1.000000" stroke="none" 
	d="
M751.000122,1312.752686 
	C743.865479,1312.752686 737.230774,1312.752686 730.264526,1312.752686 
	C730.264526,1245.184937 730.264526,1177.994995 730.264526,1110.472534 
	C756.290955,1110.472534 782.346558,1110.472534 808.740845,1110.472534 
	C808.740845,1177.697754 808.740845,1244.893921 808.740845,1312.752686 
	C789.691772,1312.752686 770.595947,1312.752686 751.000122,1312.752686 
z"/>
<path fill="#FEFEFE" opacity="1.000000" stroke="none" 
	d="
M717.084229,1264.000000 
	C717.084229,1280.318848 717.084229,1296.137695 717.084229,1312.354126 
	C690.809570,1312.354126 664.763489,1312.354126 638.325684,1312.354126 
	C638.325684,1259.246094 638.325684,1206.035156 638.325684,1152.441406 
	C664.191162,1152.441406 690.251831,1152.441406 717.084229,1152.441406 
	C717.084229,1189.372314 717.084229,1226.436157 717.084229,1264.000000 
z"/>
<path fill="#F9FAFA" opacity="1.000000" stroke="none" 
	d="
M922.371460,598.603943 
	C933.674255,622.018005 931.745361,644.068909 917.127075,665.023621 
	C891.869202,701.229736 866.420898,737.304016 841.326965,773.623230 
	C829.947021,790.093628 814.888672,799.961182 794.933289,802.409668 
	C793.144958,802.629089 791.126831,804.227783 789.969788,805.756836 
	C785.772034,811.304199 781.895813,817.094910 777.587158,823.237366 
	C759.207458,805.031677 737.944702,791.696411 715.420593,778.905945 
	C719.526855,773.027649 723.550598,767.603821 727.149963,761.911682 
	C728.241577,760.185242 728.942078,757.534668 728.494751,755.616760 
	C724.047546,736.547607 728.044006,719.387939 739.203552,703.508545 
	C761.808899,671.342651 784.217285,639.038452 806.796753,606.854370 
	C811.955627,599.500854 816.722900,591.659180 822.963867,585.314514 
	C852.737122,555.046448 900.878418,561.528625 922.371460,598.603943 
M755.321838,786.205688 
	C761.836060,791.040955 768.350281,795.876221 775.259705,801.004822 
	C777.113098,798.369751 779.032654,796.073853 780.464172,793.505920 
	C782.713928,789.470520 785.713684,787.975952 790.506653,787.826111 
	C806.139465,787.337341 818.588440,780.425049 827.602234,767.552429 
	C838.779907,751.589600 849.937927,735.612976 861.087463,719.630554 
	C876.619934,697.365356 892.655334,675.428833 907.522339,652.727417 
	C924.170532,627.306274 912.414978,593.905334 884.084656,583.718567 
	C863.006775,576.139648 840.934265,583.531921 827.161072,603.135986 
	C802.266235,638.569824 777.739746,674.264404 752.632568,709.546387 
	C741.885925,724.648193 738.360168,740.347534 744.393616,758.088745 
	C745.000244,759.872620 744.187683,762.563416 743.196411,764.375061 
	C741.322510,767.799622 738.839844,770.891052 736.559631,774.194153 
	C742.968567,778.280884 748.854492,782.034058 755.321838,786.205688 
z"/>
<path fill="#FCFCFC" opacity="1.000000" stroke="none" 
	d="
M882.563721,859.128296 
	C882.736694,857.100220 882.804321,855.503418 882.765625,853.624878 
	C882.659424,845.246155 882.659424,837.149170 882.659424,828.782715 
	C918.691528,828.782715 954.406372,828.782715 990.456299,828.782715 
	C990.456299,845.273926 990.456299,861.635071 990.456299,878.255737 
	C954.542725,878.255737 918.707214,878.255737 882.458374,878.255737 
	C882.458374,871.794983 882.458374,865.677307 882.563721,859.128296 
z"/>
<path fill="#1F3144" opacity="1.000000" stroke="none" 
	d="
M821.422607,1070.180786 
	C821.805847,1102.287964 821.865356,1134.558350 821.872131,1166.828613 
	C821.882263,1214.903076 821.855225,1262.977539 821.789856,1311.516602 
	C821.157227,1310.408691 820.074280,1308.836670 820.072571,1307.263428 
	C819.989868,1229.835205 819.993835,1152.406738 820.044800,1074.978394 
	C820.045837,1073.433350 820.716797,1071.888672 821.422607,1070.180786 
z"/>
<path fill="#1F3144" opacity="1.000000" stroke="none" 
	d="
M901.602661,1311.816162 
	C901.210632,1308.324097 901.122314,1304.666626 901.122375,1301.009155 
	C901.124451,1224.322632 901.136475,1147.636230 901.186035,1070.483643 
	C901.816895,1071.580688 902.924072,1073.143311 902.925720,1074.707153 
	C903.010010,1152.305542 903.005127,1229.904053 902.955811,1307.502563 
	C902.954956,1308.885498 902.298218,1310.268066 901.602661,1311.816162 
z"/>
<path fill="#1C2E41" opacity="1.000000" stroke="none" 
	d="
M428.666443,758.233643 
	C400.836884,758.585144 372.765015,758.585144 344.079468,758.585144 
	C344.079468,751.986633 344.079468,745.738586 344.331024,739.142944 
	C345.054230,740.808594 345.905304,742.816223 345.935303,744.835938 
	C346.116058,756.999084 346.053101,757.000000 358.410431,757.000000 
	C379.832153,757.000000 401.253937,756.977600 422.675476,757.038330 
	C424.592499,757.043762 426.507965,757.588135 428.666443,758.233643 
z"/>
<path fill="#2E3F51" opacity="1.000000" stroke="none" 
	d="
M573.150085,1073.267090 
	C555.413086,1071.244873 538.291504,1068.689697 522.763855,1060.181763 
	C519.748840,1058.529785 517.090088,1056.227661 513.788940,1053.886230 
	C519.590271,1045.431641 526.696899,1039.060669 534.388977,1033.298340 
	C549.612122,1021.894226 566.795959,1014.324341 584.554993,1007.912415 
	C586.120422,1007.347290 587.735413,1006.917358 589.292786,1006.332520 
	C594.391968,1004.417786 596.399292,1001.010315 594.935669,996.845215 
	C593.580444,992.988586 589.781433,991.254089 584.962219,993.054871 
	C574.837036,996.838379 564.672791,1000.600769 554.841858,1005.069824 
	C537.268494,1013.058838 521.418213,1023.683350 507.395874,1038.975342 
	C506.615814,1034.542725 505.776855,1031.124023 505.441101,1027.656494 
	C502.491425,997.194031 509.774323,969.769897 530.288086,946.546143 
	C545.285095,929.567993 564.950928,922.012573 586.995056,920.893127 
	C612.175842,919.614441 637.233948,917.477966 661.618774,911.031494 
	C672.449585,908.168274 682.685852,903.028992 693.149353,898.816895 
	C697.256042,897.163696 701.246155,895.220703 706.742004,892.759094 
	C705.296997,901.730469 704.231140,909.248047 702.746765,916.681946 
	C702.497986,917.928040 700.573608,919.064270 699.188599,919.821716 
	C691.154175,924.215637 683.046753,928.476074 674.970703,932.794067 
	C673.384155,933.642273 671.826904,934.545349 669.977234,935.579102 
	C670.926453,937.334717 671.682861,938.733826 672.690002,940.596619 
	C681.767334,935.798096 690.619141,931.118835 700.752197,925.762268 
	C698.532654,933.006287 697.218506,939.030945 694.880737,944.628174 
	C684.110657,970.414673 673.693115,996.380676 661.851990,1021.675049 
	C655.227112,1035.826660 645.913696,1048.744385 632.877686,1058.118774 
	C615.165222,1070.855957 594.993286,1074.552002 573.150085,1073.267090 
z"/>
<path fill="#2E3F51" opacity="1.000000" stroke="none" 
	d="
M755.031128,785.996460 
	C748.854492,782.034058 742.968567,778.280884 736.559631,774.194153 
	C738.839844,770.891052 741.322510,767.799622 743.196411,764.375061 
	C744.187683,762.563416 745.000244,759.872620 744.393616,758.088745 
	C738.360168,740.347534 741.885925,724.648193 752.632568,709.546387 
	C777.739746,674.264404 802.266235,638.569824 827.161072,603.135986 
	C840.934265,583.531921 863.006775,576.139648 884.084656,583.718567 
	C912.414978,593.905334 924.170532,627.306274 907.522339,652.727417 
	C892.655334,675.428833 876.619934,697.365356 861.087463,719.630554 
	C849.937927,735.612976 838.779907,751.589600 827.602234,767.552429 
	C818.588440,780.425049 806.139465,787.337341 790.506653,787.826111 
	C785.713684,787.975952 782.713928,789.470520 780.464172,793.505920 
	C779.032654,796.073853 777.113098,798.369751 775.259705,801.004822 
	C768.350281,795.876221 761.836060,791.040955 755.031128,785.996460 
z"/>
</svg>